<?xml version="1.0" standalone="no"?><!DOCTYPE svg PUBLIC "-//W3C//DTD SVG 1.1//EN" "http://www.w3.org/Graphics/SVG/1.1/DTD/svg11.dtd"><svg t="1705112281459" class="icon" viewBox="0 0 1024 1024" version="1.1" xmlns="http://www.w3.org/2000/svg" p-id="4715" xmlns:xlink="http://www.w3.org/1999/xlink" width="16" height="16"><path d="M769.3 154.8H258.7c-92.9 0-168.5 75.6-168.5 168.5v379.8c0 92.9 75.6 168.5 168.5 168.5h510.5c92.9 0 168.5-75.6 168.5-168.5V323.3c0.1-92.9-75.5-168.5-168.4-168.5z m-372 146c48.4 0 87.7 39.2 87.7 87.7 0 48.4-39.2 87.7-87.7 87.7-48.4 0-87.7-39.2-87.7-87.7 0.1-48.4 39.3-87.7 87.7-87.7z m-117 407l120.2-187.3 85.8 121L606.6 460l154.5 247.8H280.3z" fill="#0C0C0C" p-id="4716"></path></svg>