<?xml version="1.0" standalone="no"?><!DOCTYPE svg PUBLIC "-//W3C//DTD SVG 1.1//EN" "http://www.w3.org/Graphics/SVG/1.1/DTD/svg11.dtd"><svg t="1705112713497" class="icon" viewBox="0 0 1024 1024" version="1.1" xmlns="http://www.w3.org/2000/svg" p-id="35000" xmlns:xlink="http://www.w3.org/1999/xlink" width="16" height="16"><path d="M910.242909 284.439273H113.757091V170.682182c0-31.418182 25.506909-56.925091 56.925091-56.925091h682.635636c31.418182 0 56.925091 25.506909 56.925091 56.925091V284.392727z m0 56.878545v512c0 31.418182-25.506909 56.925091-56.925091 56.925091H170.682182a56.878545 56.878545 0 0 1-56.925091-56.925091v-512h796.485818zM284.392727 170.682182l57.250909 113.757091h56.878546l-57.250909-113.757091H284.439273z m170.682182 0l57.250909 113.757091h56.878546L512 170.682182H455.121455z m170.635636 0l57.25091 113.757091h56.878545l-57.250909-113.757091h-56.878546z m6.05091 452.096a28.439273 28.439273 0 0 0 0-50.874182L439.389091 475.694545a28.439273 28.439273 0 0 0-41.146182 25.460364V693.527273a28.439273 28.439273 0 0 0 41.146182 25.460363l192.372364-96.209454z" fill="#000" p-id="35001"></path></svg>