<?xml version="1.0" standalone="no"?><!DOCTYPE svg PUBLIC "-//W3C//DTD SVG 1.1//EN" "http://www.w3.org/Graphics/SVG/1.1/DTD/svg11.dtd"><svg t="1705112862900" class="icon" viewBox="0 0 1024 1024" version="1.1" xmlns="http://www.w3.org/2000/svg" p-id="38194" width="32" height="32" xmlns:xlink="http://www.w3.org/1999/xlink"><path d="M467.2 560m-432 0a432 432 0 1 0 864 0 432 432 0 1 0-864 0Z" fill="#cccccc" p-id="38195"></path><path d="M512 0C230.4 0 0 230.4 0 512s230.4 512 512 512 512-230.4 512-512S793.6 0 512 0z m0 976C256 976 48 768 48 512S256 48 512 48 976 256 976 512 768 976 512 976z" fill="#111111" p-id="38196"></path><path d="M528 441.6c-3.2-6.4-12.8-9.6-19.2-9.6-6.4 0-16 3.2-19.2 9.6l-156.8 220.8c-6.4 9.6-6.4 25.6 6.4 32 3.2 3.2 9.6 3.2 12.8 3.2 6.4 0 16-3.2 19.2-9.6l134.4-192 140.8 192c6.4 9.6 22.4 12.8 32 6.4 9.6-6.4 12.8-22.4 6.4-32l-156.8-220.8zM668.8 326.4H352c-12.8 0-25.6 9.6-25.6 25.6s9.6 25.6 25.6 25.6h316.8c12.8 0 25.6-9.6 25.6-25.6s-12.8-25.6-25.6-25.6z" fill="#111111" p-id="38197"></path></svg>